<?xml version="1.0" encoding="UTF-8" standalone="no"?>
<svg xmlns="http://www.w3.org/2000/svg" id="timg-logo" viewBox="0 0 399.74 306.13">
  <defs>
    <style>
      .text-color { fill: #0b0; }
      .bezel-color { fill: #9f8c76; }
      .foreground-mountain-color { fill: #29abe2; }
      .background-mountain-color { fill: #0071bc; }
      .mountain-tip-color { fill: #fff; }
      .screen-color {
        fill: #000;
        fill-opacity: 1.0;
      }
    </style>
  </defs>
  <rect id="Screen" class="screen-color" x="12.011828" y="10.538665" width="371.05124" height="278.72147"/>
  <path id="bezel" class="bezel-color" d="M 9.3007812 1.1992188 C 5.0307855 1.1992188 1.5605469 4.6897699 1.5605469 9.0097656 L 1.5605469 297.10938 C 1.5605469 301.42937 5.0307855 304.92969 9.3007812 304.92969 L 390.43945 304.92969 L 390.44922 304.94922 C 394.72921 304.94922 398.18945 301.45086 398.18945 297.13086 L 398.18945 9.0195312 C 398.18945 4.6995356 394.71921 1.1992188 390.44922 1.1992188 L 9.3007812 1.1992188 z M 199.86914 20.560547 C 251.25909 20.560547 302.64911 21.530705 354.03906 23.470703 C 364.99905 24.180702 374.00906 32.880089 375.03906 43.830078 C 379.72906 116.68001 379.72906 189.43914 375.03906 262.28906 C 374.00906 273.23905 364.99905 281.94039 354.03906 282.65039 C 251.25917 286.53039 148.47912 286.53039 45.699219 282.65039 C 34.73923 281.94039 25.729218 273.23905 24.699219 262.28906 C 20.009223 189.43914 20.009223 116.68001 24.699219 43.830078 C 25.729218 32.880089 34.73923 24.180702 45.699219 23.470703 C 97.089167 21.530705 148.47919 20.560547 199.86914 20.560547 z " />
  <g id="mountains">
    <path id="small-background-mountain" class="background-mountain-color" d="m 124.19,170.67 c -23.81,30.86 -47.45,61.84 -70.53,93.25 37.07,1.11 74.15,1.84 111.24,2.17 5.92,-7.96 8.91,-11.95 14.94,-19.94 -18.43,-25.25 -37.03,-50.37 -55.64,-75.48 z" />
    <path id="large-foreground-mountain" class="foreground-mountain-color" d="m 346.08,263.92 c -28.72,-40.38 -58.4,-80.05 -88.18,-119.65 -31.18,40.47 -62.44,80.88 -93.01,121.82" />
    <path id="snow" class="mountain-tip-color" d="m 247.18,176.6 c 10.37,4.1 11.15,9.25 18.95,6.6 6.44,-2.19 7.48,-9.33 12.79,-10.93 -7,-9.34 -14.01,-18.67 -21.02,-27.99 -9.56,12.42 -19.14,24.83 -28.7,37.24 6.59,-1.53 11.12,-7.62 17.98,-4.91 z"/>
  </g>
  <g id="command-text" transform="translate(-18,0)">
    <g id="prompt">
      <path class="text-color" d="m100.6,85.83c-.48,1.26-1.15,2.38-1.99,3.36-.85.98-1.84,1.76-2.99,2.35-1.15.59-2.41.89-3.8.91-.97.01-1.87-.07-2.7-.24-.83-.17-1.64-.45-2.41-.8-.79-.36-1.58-.8-2.34-1.32-.76-.52-1.55-1.14-2.35-1.81-.65-.55-1.31-1.02-1.93-1.43-.62-.41-1.24-.73-1.84-.97-.43-.17-.86-.3-1.3-.38-.44-.07-.9-.11-1.37-.1-.72.01-1.4.17-2.04.48-.64.31-1.2.71-1.66,1.21-.47.51-.85,1.12-1.13,1.81-.29.69-.44,1.42-.46,2.2-1.65-.18-2.48-.28-4.13-.46.04-1.35.3-2.64.8-3.87.49-1.23,1.17-2.32,2.02-3.25.83-.92,1.82-1.68,2.97-2.24,1.15-.56,2.41-.85,3.79-.88.95-.02,1.84.07,2.69.25.85.18,1.67.45,2.46.81.79.36,1.57.8,2.33,1.32.76.52,1.53,1.1,2.32,1.75.52.44,1.03.84,1.51,1.19.49.35.97.65,1.43.89.55.29,1.11.52,1.68.67.57.15,1.18.19,1.79.18.71-.02,1.4-.18,2.04-.52.64-.34,1.2-.79,1.69-1.35.47-.54.84-1.17,1.13-1.9.29-.72.44-1.48.46-2.26,1.65.2,2.48.3,4.13.5-.03,1.36-.29,2.67-.77,3.93Z"/>
      <path class="text-color" d="m130.29,90.3c-.31-.79-.81-1.53-1.5-2.21-.69-.68-1.59-1.3-2.69-1.88-1.1-.58-2.42-1.12-3.93-1.59-1.89-.59-3.62-1.25-5.15-2.02-1.53-.77-2.83-1.71-3.9-2.77-1.07-1.06-1.92-2.29-2.48-3.68-.56-1.39-.82-3.01-.78-4.84.04-1.73.35-3.3.91-4.71.56-1.41,1.34-2.65,2.33-3.71.97-1.04,2.14-1.9,3.52-2.56,1.38-.66,2.9-1.1,4.56-1.33.07-2.73.1-4.09.18-6.82,1.83-.03,2.74-.04,4.56-.07-.07,2.73-.1,4.09-.17,6.82,1.49.19,2.84.57,4.06,1.14s2.28,1.32,3.15,2.24c1.14,1.21,2,2.75,2.59,4.58.58,1.83.86,3.93.84,6.31-2.27.02-3.4.03-5.67.06.03-1.39-.12-2.66-.44-3.83-.32-1.16-.78-2.19-1.4-3.01-.62-.82-1.43-1.46-2.36-1.93-.93-.46-2-.69-3.21-.67-1.31.02-2.46.22-3.44.6-.98.38-1.79.93-2.42,1.61-.58.63-1.04,1.37-1.36,2.23-.32.86-.49,1.82-.51,2.87-.02,1.03.12,1.95.43,2.75.31.8.83,1.53,1.53,2.18.68.64,1.58,1.26,2.69,1.81,1.11.56,2.46,1.1,4.03,1.61,1.91.62,3.65,1.32,5.18,2.09s2.82,1.68,3.88,2.73c1.06,1.05,1.86,2.26,2.4,3.64.55,1.38.81,3,.79,4.84-.02,1.8-.33,3.42-.91,4.85-.59,1.43-1.41,2.66-2.45,3.68-1.05,1.03-2.31,1.88-3.8,2.51-1.49.63-3.13,1.04-4.93,1.24-.03,2.38-.04,3.57-.07,5.95-1.85.01-2.78.02-4.63.03.03-2.37.04-3.55.07-5.92-1.61-.15-3.15-.51-4.63-1.08-1.47-.57-2.77-1.41-3.89-2.51-1.11-1.08-2.01-2.46-2.66-4.12-.65-1.66-.96-3.66-.91-5.99,2.29-.02,3.44-.04,5.73-.06-.03,1.73.2,3.17.7,4.31.5,1.14,1.16,2.05,1.97,2.72.79.66,1.71,1.15,2.74,1.43,1.03.28,2.07.42,3.13.41,1.34-.01,2.56-.18,3.64-.52,1.08-.34,2-.84,2.75-1.48.74-.63,1.34-1.39,1.75-2.29.41-.9.63-1.92.65-3.06.01-.93-.13-1.79-.44-2.59Z"/>
    </g>
    <g id="timg-text">
      <path class="text-color" d="m182.9,70.61c5.08-.01,7.62-.02,12.7-.02,0,1.78,0,2.67,0,4.46-5.08,0-7.63,0-12.71.02-.03,7.33-.05,10.99-.07,18.32,0,1.31.16,2.39.49,3.24.33.85.79,1.52,1.36,2.02.58.51,1.24.88,2,1.09.75.21,1.56.31,2.4.31.62,0,1.26-.04,1.92-.11.66-.07,1.31-.16,1.95-.27.62-.1,1.2-.21,1.75-.33.55-.11,1-.21,1.35-.3.32,1.63.48,2.45.8,4.08-.48.29-1.06.55-1.74.76-.68.22-1.44.39-2.24.55-.8.15-1.66.29-2.56.38-.9.08-1.8.13-2.69.13-1.49,0-2.88-.21-4.17-.63-1.29-.42-2.41-1.11-3.36-2.04-.94-.91-1.69-2.1-2.24-3.56-.54-1.46-.81-3.23-.8-5.31.03-7.33.05-10.99.1-18.32-3.5.01-5.26.02-8.76.03.01-1.78.02-2.67.04-4.45,3.5-.02,5.25-.02,8.75-.04.02-3.26.03-4.9.05-8.16,2.29,0,3.43-.01,5.72-.02-.02,3.27-.02,4.9-.04,8.16Z"/>
      <path class="text-color" d="m225.21,70.64c.07,9.57.12,19.14.17,28.72,4.38.01,6.57.02,10.95.03.01,1.99.02,2.99.03,4.98-9.37-.03-18.75-.05-28.12-.06,0-1.99,0-2.99,0-4.99,4.57,0,6.85,0,11.41.02-.03-9.48-.05-14.22-.1-23.71-4.54-.01-6.81-.02-11.35-.02,0-2.01,0-3.01-.01-5.02,6.82,0,10.22.02,17.04.04Zm-6.27-10.27c.15-.44.4-.81.72-1.12.26-.26.61-.48,1.02-.63.42-.15.89-.23,1.43-.23.53,0,1,.08,1.41.24.41.16.75.39,1.02.64.31.29.58.66.75,1.09.17.44.25.92.26,1.43,0,.93-.27,1.71-.84,2.33-.57.62-1.42.93-2.55.92-1.15,0-2.01-.32-2.57-.94-.57-.62-.85-1.4-.86-2.34,0-.5.07-.97.22-1.4Z"/>
      <path class="text-color" d="m247.96,73.94c.66-1.18,1.54-2.09,2.63-2.75,1.09-.65,2.42-1,3.97-.99.88,0,1.68.11,2.39.32.71.2,1.35.49,1.88.87.39.28.75.65,1.08,1.07.33.42.6.89.84,1.4.28-.47.61-.91.99-1.33.38-.41.8-.79,1.25-1.07.54-.35,1.21-.62,1.91-.82.71-.2,1.49-.32,2.32-.32,1.14,0,2.19.19,3.12.55.93.35,1.73.86,2.37,1.53.71.74,1.27,1.72,1.66,2.92.39,1.19.61,2.59.64,4.21.19,10.02.26,15.03.39,25.05-2.19-.01-3.28-.02-5.46-.04-.11-10.05-.19-15.08-.36-25.13-.01-.7-.11-1.32-.28-1.86-.17-.54-.42-1.01-.73-1.34-.31-.33-.75-.59-1.23-.76-.49-.17-1.05-.26-1.69-.26-.68,0-1.26.08-1.75.26-.49.18-.91.43-1.22.73-.32.32-.58.7-.75,1.13-.18.42-.29.89-.35,1.41,0,.1,0,.2,0,.3,0,.09,0,.2,0,.33.15,10.06.22,15.09.32,25.15-2.19-.01-3.28-.02-5.46-.03-.09-10.08-.15-15.12-.29-25.2,0-.7-.1-1.33-.26-1.87-.16-.54-.41-.99-.74-1.34-.31-.33-.7-.58-1.17-.74-.47-.16-1.01-.24-1.62-.25-.68,0-1.27.07-1.77.22-.5.15-.93.37-1.27.66-.26.22-.49.48-.68.77-.19.29-.35.6-.47.93.13,10.71.18,16.07.27,26.78-2.19,0-3.28-.01-5.46-.02-.09-11.22-.19-22.44-.32-33.66,2.05.01,3.07.02,5.12.04.08,1.27.12,1.9.2,3.17Z"/>
      <path class="text-color" d="m283.09,80.7c.56-2.09,1.41-3.88,2.52-5.37,1.12-1.49,2.49-2.65,4.11-3.47,1.62-.82,3.47-1.22,5.54-1.19,1.33.02,2.57.19,3.69.52,1.13.33,2.15.79,3.07,1.4.5.32.98.68,1.43,1.1.45.42.88.88,1.29,1.38.07-1.45.11-2.18.17-3.64,2.07.03,3.11.05,5.18.09.31,10.88.58,21.75.8,32.63.04,2.2-.27,4.15-.94,5.85-.67,1.7-1.61,3.15-2.84,4.32-1.24,1.18-2.74,2.08-4.47,2.68-1.73.61-3.66.9-5.77.89-.87,0-1.87-.11-2.99-.31-1.12-.2-2.26-.55-3.4-.99-1.15-.45-2.29-1.03-3.36-1.78-1.08-.75-2-1.67-2.78-2.77,1.18-1.37,1.77-2.05,2.94-3.42.71.85,1.45,1.57,2.2,2.17.75.59,1.51,1.07,2.29,1.42.77.36,1.54.61,2.31.77.77.16,1.54.24,2.3.25,1.37,0,2.6-.18,3.69-.56,1.09-.38,2.03-.95,2.8-1.71.76-.73,1.33-1.66,1.73-2.76.4-1.11.58-2.38.56-3.82-.02-1.15-.03-1.72-.05-2.87-.43.49-.88.94-1.36,1.34-.48.41-1,.76-1.55,1.07-.86.47-1.82.82-2.87,1.07-1.05.25-2.19.37-3.41.36-2.05-.02-3.91-.46-5.58-1.34-1.67-.88-3.08-2.1-4.24-3.62-1.17-1.54-2.1-3.35-2.75-5.43-.65-2.08-1-4.32-1.04-6.71,0-.26,0-.39-.01-.65-.05-2.5.21-4.79.78-6.88Zm5.56,12.24c.37,1.47.94,2.77,1.7,3.88.74,1.11,1.69,2.01,2.84,2.67,1.15.66,2.52,1,4.11,1.01.99,0,1.89-.1,2.68-.33s1.51-.55,2.14-.98c.61-.42,1.16-.93,1.64-1.53.48-.59.91-1.24,1.26-1.96-.13-6.12-.2-9.18-.36-15.3-.39-.7-.84-1.35-1.35-1.93-.51-.58-1.09-1.11-1.74-1.54-.64-.42-1.37-.76-2.15-1-.79-.25-1.65-.38-2.6-.39-1.6-.02-2.97.29-4.09.93-1.13.64-2.04,1.52-2.73,2.62-.71,1.12-1.23,2.42-1.54,3.89-.31,1.47-.45,3.02-.42,4.65,0,.26,0,.39.01.65.03,1.63.23,3.18.6,4.65Z"/>
    </g>
  </g>
</svg>
